<svg width="106" height="38" viewBox="0 0 106 38" fill="none" xmlns="http://www.w3.org/2000/svg">
<path d="M0 0.879977H15.26V6.11998H5.98V11.44H14.56V16.66H5.98V27.28H0V0.879977Z" fill="#E5A6A6"/>
<path d="M27.3687 27.28V24.62C27.2487 24.8866 26.9421 25.2733 26.4487 25.78C25.9688 26.2866 25.3288 26.7466 24.5288 27.16C23.7288 27.56 22.7954 27.76 21.7288 27.76C20.1287 27.76 18.7288 27.3733 17.5288 26.6C16.3288 25.8133 15.3954 24.7666 14.7288 23.46C14.0621 22.14 13.7288 20.68 13.7288 19.08C13.7288 17.48 14.0621 16.0266 14.7288 14.72C15.3954 13.4 16.3288 12.3466 17.5288 11.56C18.7288 10.7733 20.1287 10.38 21.7288 10.38C22.7554 10.38 23.6554 10.5466 24.4288 10.88C25.2021 11.2 25.8288 11.5866 26.3088 12.04C26.7887 12.48 27.1221 12.8866 27.3088 13.26V10.86H33.3488V27.28H27.3687ZM19.6888 19.08C19.6888 19.8266 19.8621 20.5 20.2087 21.1C20.5554 21.6866 21.0154 22.1466 21.5888 22.48C22.1754 22.8133 22.8221 22.98 23.5288 22.98C24.2621 22.98 24.9088 22.8133 25.4688 22.48C26.0288 22.1466 26.4688 21.6866 26.7888 21.1C27.1221 20.5 27.2887 19.8266 27.2887 19.08C27.2887 18.3333 27.1221 17.6666 26.7888 17.08C26.4688 16.48 26.0288 16.0133 25.4688 15.68C24.9088 15.3333 24.2621 15.16 23.5288 15.16C22.8221 15.16 22.1754 15.3333 21.5888 15.68C21.0154 16.0133 20.5554 16.48 20.2087 17.08C19.8621 17.6666 19.6888 18.3333 19.6888 19.08Z" fill="#E5A6A6"/>
<path d="M32.5269 10.86H39.0269L42.9869 21.76L46.9669 10.86H53.4269L46.5469 27.28H39.4269L32.5269 10.86Z" fill="#E5A6A6"/>
<path d="M52.8819 27.28V10.86H58.9619V27.28H52.8819ZM56.0019 7.47998C55.0419 7.47998 54.2285 7.14664 53.5619 6.47998C52.8952 5.79998 52.5619 4.99331 52.5619 4.05998C52.5619 3.12664 52.8952 2.31998 53.5619 1.63998C54.2419 0.946643 55.0552 0.599976 56.0019 0.599976C56.6285 0.599976 57.2019 0.759976 57.7219 1.07998C58.2419 1.38664 58.6619 1.79998 58.9819 2.31998C59.3019 2.83998 59.4619 3.41998 59.4619 4.05998C59.4619 4.99331 59.1219 5.79998 58.4419 6.47998C57.7619 7.14664 56.9485 7.47998 56.0019 7.47998Z" fill="#E5A6A6"/>
<path d="M71.2506 10.38C72.3973 10.38 73.5173 10.6133 74.6106 11.08C75.704 11.5466 76.604 12.2866 77.3106 13.3C78.0173 14.3 78.3706 15.62 78.3706 17.26V27.28H72.2706V18.26C72.2706 17.0866 71.9906 16.2066 71.4306 15.62C70.8706 15.02 70.1373 14.72 69.2306 14.72C68.6306 14.72 68.064 14.88 67.5306 15.2C67.0106 15.5066 66.584 15.9466 66.2506 16.52C65.9306 17.08 65.7706 17.7266 65.7706 18.46V27.28H59.6906V10.86H65.7706V13.28C65.9306 12.84 66.264 12.4 66.7706 11.96C67.2906 11.5066 67.9373 11.1333 68.7106 10.84C69.4973 10.5333 70.344 10.38 71.2506 10.38Z" fill="#E5A6A6"/>
<path d="M91.4437 27.28V24.62C91.3237 24.8866 91.0171 25.2733 90.5238 25.78C90.0438 26.2866 89.4038 26.7466 88.6038 27.16C87.8037 27.56 86.8704 27.76 85.8037 27.76C84.2038 27.76 82.8037 27.3733 81.6038 26.6C80.4038 25.8133 79.4704 24.7666 78.8037 23.46C78.1371 22.14 77.8037 20.68 77.8037 19.08C77.8037 17.48 78.1371 16.0266 78.8037 14.72C79.4704 13.4 80.4038 12.3466 81.6038 11.56C82.8037 10.7733 84.2038 10.38 85.8037 10.38C86.8304 10.38 87.7304 10.5466 88.5038 10.88C89.2771 11.2 89.9037 11.5866 90.3838 12.04C90.8638 12.48 91.1971 12.8866 91.3838 13.26V10.86H97.4238V27.28H91.4437ZM83.7637 19.08C83.7637 19.8266 83.9371 20.5 84.2838 21.1C84.6304 21.6866 85.0904 22.1466 85.6637 22.48C86.2504 22.8133 86.8971 22.98 87.6038 22.98C88.3371 22.98 88.9838 22.8133 89.5438 22.48C90.1038 22.1466 90.5438 21.6866 90.8638 21.1C91.1971 20.5 91.3637 19.8266 91.3637 19.08C91.3637 18.3333 91.1971 17.6666 90.8638 17.08C90.5438 16.48 90.1038 16.0133 89.5438 15.68C88.9838 15.3333 88.3371 15.16 87.6038 15.16C86.8971 15.16 86.2504 15.3333 85.6637 15.68C85.0904 16.0133 84.6304 16.48 84.2838 17.08C83.9371 17.6666 83.7637 18.3333 83.7637 19.08Z" fill="#E5A6A6"/>
<path d="M102.162 27.76C101.175 27.76 100.322 27.4066 99.6019 26.7C98.8952 25.98 98.5419 25.1266 98.5419 24.14C98.5419 23.1266 98.8952 22.2666 99.6019 21.56C100.322 20.84 101.175 20.48 102.162 20.48C103.175 20.48 104.035 20.84 104.742 21.56C105.449 22.2666 105.802 23.1266 105.802 24.14C105.802 25.1266 105.449 25.98 104.742 26.7C104.035 27.4066 103.175 27.76 102.162 27.76Z" fill="#E5A6A6"/>
<path d="M24.0964 36.68C24.3564 36.68 24.5664 36.6383 24.7264 36.555C24.8864 36.4716 24.9864 36.4116 25.0264 36.375L25.4514 37C25.4181 37.03 25.3381 37.0783 25.2114 37.145C25.0881 37.2083 24.9281 37.2666 24.7314 37.32C24.5381 37.3733 24.3181 37.4 24.0714 37.4C23.6948 37.4 23.3448 37.3166 23.0214 37.15C22.6981 36.98 22.4364 36.7333 22.2364 36.41C22.0398 36.0866 21.9414 35.6916 21.9414 35.225C21.9414 34.755 22.0398 34.36 22.2364 34.04C22.4364 33.7166 22.6981 33.4716 23.0214 33.305C23.3448 33.1383 23.6948 33.055 24.0714 33.055C24.3148 33.055 24.5314 33.085 24.7214 33.145C24.9114 33.2016 25.0681 33.265 25.1914 33.335C25.3148 33.405 25.3964 33.4583 25.4364 33.495L25.0064 34.12C24.9798 34.0933 24.9281 34.0533 24.8514 34C24.7781 33.9433 24.6781 33.8916 24.5514 33.845C24.4248 33.7983 24.2731 33.775 24.0964 33.775C23.8831 33.775 23.6748 33.8333 23.4714 33.95C23.2714 34.0633 23.1064 34.2283 22.9764 34.445C22.8464 34.6616 22.7814 34.9216 22.7814 35.225C22.7814 35.5283 22.8464 35.79 22.9764 36.01C23.1064 36.2266 23.2714 36.3933 23.4714 36.51C23.6748 36.6233 23.8831 36.68 24.0964 36.68Z" fill="#C8BFE7"/>
<path d="M31.3118 37.4C30.8885 37.4 30.5118 37.305 30.1818 37.115C29.8552 36.925 29.5985 36.6683 29.4118 36.345C29.2252 36.0183 29.1318 35.65 29.1318 35.24C29.1318 34.83 29.2252 34.46 29.4118 34.13C29.5985 33.8 29.8552 33.5383 30.1818 33.345C30.5118 33.1516 30.8885 33.055 31.3118 33.055C31.7318 33.055 32.1035 33.1516 32.4268 33.345C32.7535 33.5383 33.0085 33.8 33.1918 34.13C33.3752 34.46 33.4668 34.83 33.4668 35.24C33.4668 35.65 33.3752 36.0183 33.1918 36.345C33.0085 36.6683 32.7535 36.925 32.4268 37.115C32.1035 37.305 31.7318 37.4 31.3118 37.4ZM31.3118 36.655C31.5785 36.655 31.8102 36.5933 32.0068 36.47C32.2068 36.3466 32.3618 36.1783 32.4718 35.965C32.5818 35.7483 32.6368 35.505 32.6368 35.235C32.6368 34.965 32.5818 34.7216 32.4718 34.505C32.3618 34.2883 32.2068 34.1166 32.0068 33.99C31.8102 33.8633 31.5785 33.8 31.3118 33.8C31.0418 33.8 30.8068 33.8633 30.6068 33.99C30.4068 34.1166 30.2502 34.2883 30.1368 34.505C30.0268 34.7216 29.9718 34.965 29.9718 35.235C29.9718 35.505 30.0268 35.7483 30.1368 35.965C30.2502 36.1783 30.4068 36.3466 30.6068 36.47C30.8068 36.5933 31.0418 36.655 31.3118 36.655Z" fill="#C8BFE7"/>
<path d="M39.0714 33.055C39.2847 33.055 39.483 33.0766 39.6664 33.12C39.853 33.1633 40.013 33.215 40.1464 33.275C40.283 33.335 40.3797 33.3883 40.4364 33.435L40.0914 33.985C40.0247 33.925 39.9047 33.8583 39.7314 33.785C39.558 33.7083 39.3647 33.67 39.1514 33.67C38.918 33.67 38.7197 33.7166 38.5564 33.81C38.393 33.9 38.3114 34.0316 38.3114 34.205C38.3114 34.3783 38.3947 34.5166 38.5614 34.62C38.7314 34.72 38.958 34.8033 39.2414 34.87C39.468 34.9233 39.6797 34.995 39.8764 35.085C40.0764 35.175 40.238 35.3 40.3614 35.46C40.4847 35.6166 40.5464 35.8266 40.5464 36.09C40.5464 36.33 40.4964 36.535 40.3964 36.705C40.2964 36.8716 40.1614 37.0066 39.9914 37.11C39.8214 37.21 39.6314 37.2833 39.4214 37.33C39.2114 37.3766 38.998 37.4 38.7814 37.4C38.528 37.4 38.2997 37.3733 38.0964 37.32C37.893 37.27 37.7214 37.21 37.5814 37.14C37.4447 37.0666 37.3447 37.0033 37.2814 36.95L37.6264 36.33C37.713 36.4133 37.8547 36.5016 38.0514 36.595C38.2514 36.6883 38.478 36.735 38.7314 36.735C39.0114 36.735 39.238 36.6766 39.4114 36.56C39.5847 36.44 39.6714 36.285 39.6714 36.095C39.6714 35.9516 39.6297 35.8366 39.5464 35.75C39.463 35.6633 39.3514 35.5933 39.2114 35.54C39.0714 35.4866 38.918 35.44 38.7514 35.4C38.5914 35.3633 38.4347 35.315 38.2814 35.255C38.1314 35.195 37.993 35.1183 37.8664 35.025C37.743 34.9283 37.6447 34.8116 37.5714 34.675C37.498 34.535 37.4614 34.3716 37.4614 34.185C37.4614 33.9483 37.5364 33.7466 37.6864 33.58C37.8364 33.41 38.033 33.28 38.2764 33.19C38.5197 33.1 38.7847 33.055 39.0714 33.055Z" fill="#C8BFE7"/>
<path d="M49.5798 33.055C49.8831 33.055 50.1431 33.1216 50.3598 33.255C50.5765 33.385 50.7415 33.585 50.8548 33.855C50.9715 34.125 51.0298 34.47 51.0298 34.89V37.28H50.1698V35.065C50.1698 34.6216 50.1081 34.2883 49.9848 34.065C49.8615 33.8416 49.6365 33.73 49.3098 33.73C49.1365 33.73 48.9698 33.7783 48.8098 33.875C48.6531 33.9683 48.5231 34.1133 48.4198 34.31C48.3198 34.5066 48.2698 34.7583 48.2698 35.065V37.28H47.4598V35.065C47.4598 34.6216 47.3831 34.2883 47.2298 34.065C47.0765 33.8416 46.8615 33.73 46.5848 33.73C46.4081 33.73 46.2415 33.7766 46.0848 33.87C45.9315 33.96 45.8065 34.1033 45.7098 34.3C45.6131 34.4966 45.5648 34.7516 45.5648 35.065V37.28H44.6998V33.175H45.5648V33.805C45.6015 33.7016 45.6798 33.5916 45.7998 33.475C45.9231 33.3583 46.0798 33.26 46.2698 33.18C46.4631 33.0966 46.6781 33.055 46.9148 33.055C47.1615 33.055 47.3681 33.105 47.5348 33.205C47.7015 33.305 47.8331 33.4283 47.9298 33.575C48.0265 33.7183 48.0931 33.8566 48.1298 33.99C48.1765 33.8466 48.2665 33.7033 48.3998 33.56C48.5331 33.4133 48.7015 33.2933 48.9048 33.2C49.1081 33.1033 49.3331 33.055 49.5798 33.055Z" fill="#C8BFE7"/>
<path d="M55.8779 35.405C55.8813 35.6516 55.9346 35.8766 56.0379 36.08C56.1413 36.2833 56.2946 36.445 56.4979 36.565C56.7046 36.685 56.9579 36.745 57.2579 36.745C57.5113 36.745 57.7263 36.7083 57.9029 36.635C58.0829 36.5583 58.2296 36.4683 58.3429 36.365C58.4563 36.2583 58.5379 36.1633 58.5879 36.08L59.0129 36.605C58.9029 36.765 58.7679 36.905 58.6079 37.025C58.4513 37.145 58.2596 37.2366 58.0329 37.3C57.8063 37.3666 57.5296 37.4 57.2029 37.4C56.7629 37.4 56.3813 37.3066 56.0579 37.12C55.7379 36.93 55.4913 36.6683 55.3179 36.335C55.1446 35.9983 55.0579 35.6133 55.0579 35.18C55.0579 34.78 55.1396 34.42 55.3029 34.1C55.4663 33.7766 55.7029 33.5216 56.0129 33.335C56.3263 33.1483 56.7029 33.055 57.1429 33.055C57.5463 33.055 57.8963 33.14 58.1929 33.31C58.4929 33.4766 58.7246 33.7133 58.8879 34.02C59.0546 34.3266 59.1379 34.6933 59.1379 35.12C59.1379 35.1466 59.1363 35.195 59.1329 35.265C59.1296 35.3316 59.1263 35.3783 59.1229 35.405H55.8779ZM58.3079 34.75C58.3046 34.6133 58.2646 34.4633 58.1879 34.3C58.1146 34.1366 57.9946 33.9966 57.8279 33.88C57.6613 33.7633 57.4363 33.705 57.1529 33.705C56.8596 33.705 56.6229 33.7616 56.4429 33.875C56.2663 33.9883 56.1363 34.1266 56.0529 34.29C55.9696 34.45 55.9213 34.6033 55.9079 34.75H58.3079Z" fill="#C8BFE7"/>
<path d="M62.8486 33.175H63.6536V31.49H64.5186V33.175H65.5736V33.92H64.5186V35.95C64.5186 36.19 64.5602 36.3666 64.6436 36.48C64.7302 36.5933 64.8452 36.65 64.9886 36.65C65.1152 36.65 65.2136 36.6266 65.2836 36.58C65.3536 36.5333 65.3952 36.5016 65.4086 36.485L65.7536 37.125C65.7336 37.1416 65.6802 37.1733 65.5936 37.22C65.5069 37.2666 65.3952 37.3083 65.2586 37.345C65.1219 37.3816 64.9619 37.4 64.7786 37.4C64.4586 37.4 64.1902 37.3033 63.9736 37.11C63.7602 36.9133 63.6536 36.6033 63.6536 36.18V33.92H62.8486V33.175Z" fill="#C8BFE7"/>
<path d="M69.7041 37.28V33.175H70.5741V37.28H69.7041ZM70.1491 31.77C69.9924 31.77 69.8574 31.715 69.7441 31.605C69.6341 31.4916 69.5791 31.3566 69.5791 31.2C69.5791 31.0433 69.6341 30.9083 69.7441 30.795C69.8574 30.6816 69.9924 30.625 70.1491 30.625C70.2524 30.625 70.3474 30.6516 70.4341 30.705C70.5241 30.7583 70.5958 30.8283 70.6491 30.915C70.7024 30.9983 70.7291 31.0933 70.7291 31.2C70.7291 31.3566 70.6724 31.4916 70.5591 31.605C70.4458 31.715 70.3091 31.77 70.1491 31.77Z" fill="#C8BFE7"/>
<path d="M76.939 36.68C77.199 36.68 77.409 36.6383 77.569 36.555C77.729 36.4716 77.829 36.4116 77.869 36.375L78.294 37C78.2607 37.03 78.1807 37.0783 78.054 37.145C77.9307 37.2083 77.7707 37.2666 77.574 37.32C77.3807 37.3733 77.1607 37.4 76.914 37.4C76.5374 37.4 76.1874 37.3166 75.864 37.15C75.5407 36.98 75.279 36.7333 75.079 36.41C74.8824 36.0866 74.784 35.6916 74.784 35.225C74.784 34.755 74.8824 34.36 75.079 34.04C75.279 33.7166 75.5407 33.4716 75.864 33.305C76.1874 33.1383 76.5374 33.055 76.914 33.055C77.1574 33.055 77.374 33.085 77.564 33.145C77.754 33.2016 77.9107 33.265 78.034 33.335C78.1574 33.405 78.239 33.4583 78.279 33.495L77.849 34.12C77.8224 34.0933 77.7707 34.0533 77.694 34C77.6207 33.9433 77.5207 33.8916 77.394 33.845C77.2674 33.7983 77.1157 33.775 76.939 33.775C76.7257 33.775 76.5174 33.8333 76.314 33.95C76.114 34.0633 75.949 34.2283 75.819 34.445C75.689 34.6616 75.624 34.9216 75.624 35.225C75.624 35.5283 75.689 35.79 75.819 36.01C75.949 36.2266 76.114 36.3933 76.314 36.51C76.5174 36.6233 76.7257 36.68 76.939 36.68Z" fill="#C8BFE7"/>
<path d="M83.7651 33.055C83.9784 33.055 84.1768 33.0766 84.3601 33.12C84.5468 33.1633 84.7068 33.215 84.8401 33.275C84.9768 33.335 85.0734 33.3883 85.1301 33.435L84.7851 33.985C84.7184 33.925 84.5984 33.8583 84.4251 33.785C84.2518 33.7083 84.0584 33.67 83.8451 33.67C83.6118 33.67 83.4134 33.7166 83.2501 33.81C83.0868 33.9 83.0051 34.0316 83.0051 34.205C83.0051 34.3783 83.0884 34.5166 83.2551 34.62C83.4251 34.72 83.6518 34.8033 83.9351 34.87C84.1618 34.9233 84.3735 34.995 84.5701 35.085C84.7701 35.175 84.9318 35.3 85.0551 35.46C85.1785 35.6166 85.2401 35.8266 85.2401 36.09C85.2401 36.33 85.1901 36.535 85.0901 36.705C84.9901 36.8716 84.8551 37.0066 84.6851 37.11C84.5151 37.21 84.3251 37.2833 84.1151 37.33C83.9051 37.3766 83.6918 37.4 83.4751 37.4C83.2218 37.4 82.9934 37.3733 82.7901 37.32C82.5868 37.27 82.4151 37.21 82.2751 37.14C82.1384 37.0666 82.0384 37.0033 81.9751 36.95L82.3201 36.33C82.4068 36.4133 82.5484 36.5016 82.7451 36.595C82.9451 36.6883 83.1718 36.735 83.4251 36.735C83.7051 36.735 83.9318 36.6766 84.1051 36.56C84.2784 36.44 84.3651 36.285 84.3651 36.095C84.3651 35.9516 84.3234 35.8366 84.2401 35.75C84.1568 35.6633 84.0451 35.5933 83.9051 35.54C83.7651 35.4866 83.6118 35.44 83.4451 35.4C83.2851 35.3633 83.1284 35.315 82.9751 35.255C82.8251 35.195 82.6868 35.1183 82.5601 35.025C82.4368 34.9283 82.3384 34.8116 82.2651 34.675C82.1918 34.535 82.1551 34.3716 82.1551 34.185C82.1551 33.9483 82.2301 33.7466 82.3801 33.58C82.5301 33.41 82.7268 33.28 82.9701 33.19C83.2134 33.1 83.4784 33.055 83.7651 33.055Z" fill="#C8BFE7"/>
</svg>
